<?xml version="1.0" encoding="utf-8"?>
<!-- Generator: Adobe Illustrator 17.0.0, SVG Export Plug-In . SVG Version: 6.00 Build 0)  -->
<!DOCTYPE svg PUBLIC "-//W3C//DTD SVG 1.1//EN" "http://www.w3.org/Graphics/SVG/1.1/DTD/svg11.dtd">
<svg version="1.1" id="Слой_1" xmlns="http://www.w3.org/2000/svg" xmlns:xlink="http://www.w3.org/1999/xlink" x="0px" y="0px"
	 width="150px" height="190px" viewBox="0 0 150 190" enable-background="new 0 0 150 190" xml:space="preserve">
<g>
	<defs>
		<rect id="SVGID_1_" x="1.686" y="-0.003" width="146.628" height="190.007"/>
	</defs>
	<clipPath id="SVGID_2_">
		<use xlink:href="#SVGID_1_"  overflow="visible"/>
	</clipPath>
	<path clip-path="url(#SVGID_2_)" fill="#201600" d="M118.408,94.976V29.651c0-7.735-6.294-14.031-14.031-14.031H46.489
		c-7.738,0-14.031,6.297-14.031,14.031v56.194h-3.88c-7.737,0-14.031,6.294-14.031,14.031v0.624c0,2.738,0.79,5.292,2.154,7.454
		c-3.432,2.56-5.662,6.65-5.662,11.254v0.623c0,4.602,2.229,8.692,5.662,11.254c-1.361,2.16-2.154,4.716-2.154,7.454v0.624
		c0,7.735,6.294,14.031,14.031,14.031h3.894c0.199,5.44,3.508,10.096,8.201,12.243c0.436,4.912,1.909,14.118,6.906,21.299
		c0.909,1.304,2.366,2.005,3.843,2.005c0.923,0,1.854-0.271,2.668-0.838c2.122-1.476,2.644-4.392,1.167-6.511
		c-3.179-4.57-4.49-10.574-5.031-14.687h38.671c0.128,0.192,0.255,0.381,0.381,0.567c1.471,2.124,4.382,2.654,6.506,1.185
		c2.126-1.471,2.656-4.382,1.187-6.506c-5.575-8.059-4.111-16.786,4.481-26.667c1.434-1.24,5.757-5.488,5.245-11.241
		c-0.386-4.368-3.323-8.041-8.73-10.914c-0.163-0.087-0.327-0.162-0.498-0.228c-0.217-0.085-5.333-2.14-4.556-7.345
		c0.473-3.151,6.908-3.871,11.118-3.586c10.829,0.733,18.566,3.65,22.374,8.429c2.691,3.38,3.558,7.776,2.654,13.44
		c-0.194,1.208-0.386,2.453-0.582,3.722c-2.692,17.398-6.043,39.048-23.324,53.629c-1.976,1.665-2.225,4.616-0.56,6.589
		c0.925,1.099,2.247,1.663,3.576,1.663c1.066,0,2.137-0.361,3.014-1.103c19.958-16.838,23.76-41.407,26.535-59.346
		c0.196-1.256,0.386-2.485,0.575-3.679c1.325-8.288-0.215-15.267-4.572-20.741C130.243,100.203,125.116,96.995,118.408,94.976
		 M46.489,24.974h57.888c2.579,0,4.677,2.099,4.677,4.677v3.869H41.812v-3.869C41.812,27.073,43.911,24.974,46.489,24.974
		 M25.069,124.507c-2.578,0-4.677-2.097-4.677-4.677v-0.623c0-2.578,2.099-4.677,4.677-4.677h7.016v9.977H25.069z M23.9,99.874
		c0-2.578,2.099-4.677,4.677-4.677h3.508v9.978h-3.508c-2.578,0-4.677-2.097-4.677-4.677V99.874z M32.085,143.839h-3.508
		c-2.578,0-4.677-2.097-4.677-4.677v-0.624c0-2.578,2.099-4.677,4.677-4.677h3.508V143.839z M46.489,157.352
		c-2.578,0-4.677-2.099-4.677-4.677v-3.869h42.775c-0.398,3.12-0.203,5.981,0.343,8.546H46.489z M83.664,104.172
		c-1.462,9.779,5.812,15.52,10.115,17.325c2.544,1.389,3.531,2.642,3.601,3.362c0.098,1.007-1.194,2.658-2.094,3.392
		c-0.226,0.178-0.434,0.374-0.624,0.591c-3.268,3.711-5.604,7.258-7.219,10.611H41.812V42.874h67.243v50.19
		c-1.418-0.178-2.877-0.324-4.391-0.427C92.885,91.842,84.847,96.259,83.664,104.172"/>
	<path clip-path="url(#SVGID_2_)" fill="#201600" d="M141.043,98.643c-0.804-1.011-2.277-1.179-3.286-0.372
		c-1.009,0.804-1.176,2.275-0.372,3.284c3.581,4.499,7.45,12.385,5.531,24.393c-0.203,1.275,0.665,2.474,1.942,2.679
		c0.126,0.018,0.248,0.027,0.372,0.027c1.128,0,2.122-0.82,2.307-1.968C149.721,112.992,145.211,103.878,141.043,98.643"/>
	<path clip-path="url(#SVGID_2_)" fill="#201600" d="M104.379,10.114c10.316,0,18.709,8.393,18.709,18.709
		c0,1.29,1.046,2.339,2.339,2.339s2.339-1.048,2.339-2.339c0-12.896-10.491-23.386-23.386-23.386c-1.293,0-2.339,1.046-2.339,2.339
		C102.041,9.065,103.087,10.114,104.379,10.114"/>
	<path clip-path="url(#SVGID_2_)" fill="#201600" d="M116.041,4.592c5.296,1.457,9.667,5.161,11.994,10.163
		c0.398,0.852,1.24,1.352,2.122,1.352c0.331,0,0.667-0.071,0.987-0.219c1.169-0.543,1.678-1.934,1.132-3.106
		c-2.907-6.249-8.372-10.878-14.993-12.7c-1.247-0.345-2.533,0.388-2.875,1.635C114.063,2.961,114.794,4.249,116.041,4.592"/>
</g>
<g>
	<defs>
		<rect id="SVGID_3_" x="1.686" y="-0.004" width="146.628" height="190.009"/>
	</defs>
	<clipPath id="SVGID_4_">
		<use xlink:href="#SVGID_3_"  overflow="visible"/>
	</clipPath>
	<path clip-path="url(#SVGID_4_)" fill="#201600" d="M27.008,157.695c-9.61-0.804-17.137-8.989-17.137-18.638v-0.623
		c0-1.773,0.254-3.538,0.756-5.248l0.333-1.142l-0.724-0.943c-2.533-3.296-3.873-7.229-3.873-11.375v-0.624
		c0-4.147,1.341-8.082,3.873-11.375l0.724-0.943l-0.333-1.142c-0.502-1.708-0.756-3.476-0.756-5.248V99.77
		c0-9.185,6.844-17.14,15.92-18.501c1.277-0.189,2.158-1.382,1.967-2.658c-0.192-1.279-1.377-2.16-2.661-1.966
		C13.751,78.345,5.194,88.289,5.194,99.77v0.623c0,1.827,0.215,3.647,0.642,5.428c-2.72,3.917-4.15,8.484-4.15,13.28v0.624
		c0,4.796,1.432,9.361,4.15,13.28c-0.427,1.779-0.642,3.6-0.642,5.429v0.623c0,12.061,9.412,22.294,21.424,23.297
		c0.066,0.004,0.132,0.009,0.196,0.009c1.204,0,2.227-0.925,2.33-2.144C29.251,158.932,28.294,157.802,27.008,157.695"/>
</g>
</svg>
