<svg version="1.1" id="Слой_1" xmlns="http://www.w3.org/2000/svg" xmlns:xlink="http://www.w3.org/1999/xlink" x="0px" y="0px"
	 width="325.933px" height="354px" viewBox="0 0 325.933 354" enable-background="new 0 0 325.933 354" xml:space="preserve">
<g>
	<defs>
		<rect id="SVGID_1_" x="0.001" width="325.92" height="354"/>
	</defs>
	<clipPath id="SVGID_2_">
		<use xlink:href="#SVGID_1_"  overflow="visible"/>
	</clipPath>
	<path clip-path="url(#SVGID_2_)" d="M214.552,225.004c-9.324,0-17.883,5.453-21.805,13.891c-2.703,5.816-2.969,12.375-0.742,18.464
		c2.207,6.024,6.57,10.801,12.293,13.454c3.137,1.457,6.492,2.191,9.969,2.191c9.394,0,18.004-5.434,21.929-13.84
		c5.602-11.992,0.403-26.309-11.586-31.922C221.439,225.758,218.052,225.004,214.552,225.004"/>
	<path clip-path="url(#SVGID_2_)" d="M325.802,196.012c-1.672-28.992-20.891-53.989-46.957-65.082
		c-4.867,6.031-9.969,12.183-15.25,18.383c21.515,6.238,38.554,25.683,39.844,47.984c0.8,13.902-3.157,27.805-12.829,45.074
		c-18.429,32.895-66.449,66.195-122.578,66.192c-13.402,0-26.648-1.954-39.371-5.801c-2.512-0.758-4.988-1.582-7.437-2.453
		c-0.352,0.418-0.719,0.828-1.106,1.218c-3.551,3.547-8.23,5.563-13.234,5.723l-6.422,8.875c6.992,3.117,14.242,5.82,21.715,8.082
		c14.828,4.481,30.254,6.754,45.851,6.754h0.012c29.523,0,59.176-8.051,85.742-23.281c24.617-14.114,44.637-33.418,56.371-54.364
		C317.528,240.148,327.173,219.879,325.802,196.012"/>
</g>
<g>
	<defs>
		<rect id="SVGID_3_" width="325.933" height="354"/>
	</defs>
	<clipPath id="SVGID_4_">
		<use xlink:href="#SVGID_3_"  overflow="visible"/>
	</clipPath>
	<path clip-path="url(#SVGID_4_)" d="M86.892,174.703c-3.176-1.515-6.59-2.281-10.141-2.281c-9.316,0-17.895,5.371-21.855,13.68
		c-2.719,5.711-3.012,12.207-0.821,18.296c2.203,6.118,6.598,10.969,12.383,13.661c3.238,1.507,6.676,2.269,10.219,2.269
		c9.234,0,17.738-5.375,21.664-13.691C103.966,194.723,98.829,180.398,86.892,174.703"/>
</g>
<g>
	<defs>
		<rect id="SVGID_5_" x="0.001" width="325.92" height="354"/>
	</defs>
	<clipPath id="SVGID_6_">
		<use xlink:href="#SVGID_5_"  overflow="visible"/>
	</clipPath>
	<path clip-path="url(#SVGID_6_)" d="M148.716,105.621c2.707-11.855,0.16-23.594-6.988-32.203
		c-6.864-8.262-17.028-12.813-28.625-12.813c-11.25,0-22.629,4.309-32.043,12.129c-8.875,7.371-15.071,17.161-17.45,27.563
		c-2.707,11.859-0.16,23.598,6.989,32.203c6.863,8.262,17.031,12.813,28.625,12.813c11.25,0,22.629-4.309,32.047-12.129
		C140.142,125.813,146.337,116.027,148.716,105.621 M119.505,119.02c-6.117,5.082-13.32,7.878-20.281,7.878
		c-6.02,0-11.157-2.187-14.457-6.164c-3.457-4.16-4.625-10.113-3.204-16.332c1.481-6.484,5.481-12.699,11.262-17.5
		c6.117-5.082,13.317-7.879,20.278-7.879c6.023,0,11.16,2.188,14.46,6.161c3.454,4.16,4.622,10.117,3.2,16.336
		C129.282,108.004,125.282,114.219,119.505,119.02"/>
	<path clip-path="url(#SVGID_6_)" d="M41.708,273.297l18.305-13.254c0-0.027,0.004-0.055,0.008-0.086
		c-22.043-24.148-35.575-55.293-37.418-89.484C21.286,146.055,26.536,123.176,40.161,94c14.125-28.371,40.883-52.402,73.434-65.937
		c9.172-3.813,17.656-5.665,25.949-5.665c7.117,0,13.871,1.368,20.645,4.176c14.316,5.938,26.683,18.797,32.273,33.559
		c3.375,8.91,5.828,22.762-1.668,38.14c-3.125,6.418-4.672,14.461-4.355,22.649c0.124,3.289,0.671,6.398,1.589,9.281
		c7.203-6.64,14.575-13.238,21.95-19.66c0.273-0.887,0.593-1.715,0.957-2.461c8.699-17.859,9.558-37.184,2.472-55.883
		c-7.82-20.652-24.508-37.965-44.636-46.312C159.353,1.98,149.521,0,139.544,0c-11.145,0-22.766,2.484-34.547,7.383
		C67.481,22.977,36.517,50.961,20.04,84.156l-0.117,0.239C4.591,117.191-1.296,143.297,0.235,171.676
		c1.899,35.23,14.399,68.187,36.141,95.312C38.103,269.137,39.884,271.234,41.708,273.297"/>
</g>
<g>
	<defs>
		<rect id="SVGID_7_" width="325.933" height="354"/>
	</defs>
	<clipPath id="SVGID_8_">
		<use xlink:href="#SVGID_7_"  overflow="visible"/>
	</clipPath>
	<path clip-path="url(#SVGID_8_)" d="M45.665,345.844c0.461,0.461,0.922,0.933,1.383,1.406c0.473,0.484,0.945,0.969,1.414,1.438
		h0.004c2.57,2.574,5.562,5.273,8.828,5.273c0.262,0,0.523-0.02,0.785-0.055c2.188-0.297,3.656-1.886,5.645-4.511l40.55-53.407
		c3.18,0.801,6.688-0.027,9.172-2.515c2.27-2.27,3.16-5.399,2.688-8.348c2.953,0.469,6.082-0.422,8.351-2.691
		c2.95-2.946,3.575-7.336,1.907-10.911c12.429-9.527,65.621-60.835,78.082-73.296c54.578-54.575,117.648-133.774,107.699-143.723
		s-89.149,53.117-143.727,107.695c-12.461,12.461-63.765,65.656-73.297,78.082c-3.574-1.668-7.96-1.039-10.91,1.907
		c-2.269,2.273-3.16,5.402-2.687,8.355c-2.953-0.473-6.082,0.414-8.352,2.687c-2.222,2.223-3.125,5.27-2.722,8.165L16.97,302.859
		c-2.692,2.024-4.078,4.118-4.235,6.403c-0.218,3.097,1.903,5.672,4.223,7.996 M56.056,338.156c-0.446-0.457-0.891-0.91-1.34-1.363
		L29.692,311.77c-0.464-0.465-0.929-0.915-1.367-1.332l41.399-32.723l4.547,4.547l-11.204,14.39
		c-1.218,1.563-1.105,3.782,0.262,5.215c0.777,0.817,1.832,1.242,2.895,1.242c0.8,0,1.605-0.242,2.3-0.73l15.18-10.684l4.59,4.59
		L56.056,338.156z"/>
</g>
</svg>
