<?xml version="1.0" encoding="utf-8"?>
<!-- Generator: Adobe Illustrator 17.0.0, SVG Export Plug-In . SVG Version: 6.00 Build 0)  -->
<!DOCTYPE svg PUBLIC "-//W3C//DTD SVG 1.1//EN" "http://www.w3.org/Graphics/SVG/1.1/DTD/svg11.dtd">
<svg version="1.1" id="Слой_1" xmlns="http://www.w3.org/2000/svg" xmlns:xlink="http://www.w3.org/1999/xlink" x="0px" y="0px"
	 width="363.84px" height="441px" viewBox="0 0 363.84 441" enable-background="new 0 0 363.84 441" xml:space="preserve">
<g>
	<defs>
		<rect id="SVGID_1_" width="363.84" height="441"/>
	</defs>
	<clipPath id="SVGID_2_">
		<use xlink:href="#SVGID_1_"  overflow="visible"/>
	</clipPath>
	<path clip-path="url(#SVGID_2_)" d="M23.441,222.234c0-50.402,24-94.961,60.719-124.32c7.84-5.36,13.68,0,11.281,3.918
		C70,161.593,88.559,220.312,131.68,232.074c-12.719-30.321-18.641-64.641-14.719-99.84c5.84-51.922,31.359-96.481,68.078-127.762
		c3.441-2.961,6.883-4.879,9.281-4.398c2.481,0.48,3.918,1.918,2.961,5.359c-2.961,10.32-4.883,21.039-5.84,31.84
		c-4.882,43.602,4.879,84.719,24.957,119.922c30.321,0,43.122-35.281,46.481-59.762c0-5.84,4.402-9.762,13.199-2.961
		c39.203,28.879,65.121,74.879,65.121,127.281c0,87.598-70.961,158.641-159.121,158.641
		C94.48,380.875,23.441,309.832,23.441,222.234 M346.559,405.832H17.602C7.84,405.832,0,413.671,0,423.433
		c0,9.762,7.84,17.121,17.602,17.121h329.039c9.757,0,17.121-7.84,17.121-17.121C363.762,413.671,356.398,405.832,346.559,405.832"
		/>
</g>
</svg>
