<?xml version="1.0" encoding="utf-8"?>
<!-- Generator: Adobe Illustrator 17.0.0, SVG Export Plug-In . SVG Version: 6.00 Build 0)  -->
<!DOCTYPE svg PUBLIC "-//W3C//DTD SVG 1.1//EN" "http://www.w3.org/Graphics/SVG/1.1/DTD/svg11.dtd" [
	<!ENTITY ns_flows "http://ns.adobe.com/Flows/1.0/">
	<!ENTITY ns_extend "http://ns.adobe.com/Extensibility/1.0/">
	<!ENTITY ns_ai "http://ns.adobe.com/AdobeIllustrator/10.0/">
	<!ENTITY ns_graphs "http://ns.adobe.com/Graphs/1.0/">
]>
<svg version="1.1" id="Слой_1" xmlns:x="&ns_extend;" xmlns:i="&ns_ai;" xmlns:graph="&ns_graphs;"
	 xmlns="http://www.w3.org/2000/svg" xmlns:xlink="http://www.w3.org/1999/xlink" xmlns:a="http://ns.adobe.com/AdobeSVGViewerExtensions/3.0/"
	 x="0px" y="0px" width="70px" height="94px" viewBox="0 0 70 94" enable-background="new 0 0 70 94" xml:space="preserve">
<g>
	<defs>
		<rect id="SVGID_1_" x="0.8" y="1.186" width="68.401" height="91.628"/>
	</defs>
	<clipPath id="SVGID_2_">
		<use xlink:href="#SVGID_1_"  overflow="visible"/>
	</clipPath>
	<path clip-path="url(#SVGID_2_)" fill-rule="evenodd" clip-rule="evenodd" fill="#214269" d="M2.252,51.223
		c0,0-1.636-5.608-1.435-12.618s0.334-8.812,0.334-8.812s7.611-2.871,10.548-3.739c2.937-0.868,8.612-2.337,9.68-2.403
		c0,0,0.401,1.969-1.202,3.471c-1.602,1.502-4.74,2.27-5.975,2.537c-1.235,0.267-8.813,2.637-8.813,2.637L5.322,42.678
		c0,0,0.033,3.572-0.467,4.974C4.354,49.054,3.052,51.156,2.252,51.223"/>
</g>
<g>
	<defs>
		<path id="SVGID_3_" d="M45.811,50.656c-2.737,6.676-7.01,8.011-10.548,13.085c-3.538,5.074-3.605,8.312-3.404,11.282
			c0.201,2.971,3.371,6.275,3.371,6.275s-0.067-2.503,0.367-4.273c0.434-1.769,0.568-2.403,2.304-6.008
			c1.736-3.605,8.211-8.211,9.013-8.678c0.801-0.467,0.968,0.1,0.968,0.1s0.601,1.736,0.468,5.14
			c-0.134,3.405-2.47,8.211-2.47,8.211s2.871-3.405,4.607-5.808c1.735-2.403,4.54-6.876,6.542-11.616
			c2.003-4.74,2.337-10.882,0-16.356c-2.336-5.474-10.214-9.346-10.214-9.346C48.881,40.508,48.548,43.98,45.811,50.656"/>
	</defs>
	<clipPath id="SVGID_4_">
		<use xlink:href="#SVGID_3_"  overflow="visible"/>
	</clipPath>
	
		<linearGradient id="SVGID_5_" gradientUnits="userSpaceOnUse" x1="-91.2223" y1="218.7456" x2="-90.9552" y2="218.7456" gradientTransform="matrix(-90.8457 -22.7115 -22.7115 90.8457 -3260.4983 -21883.6504)">
		<stop  offset="0" style="stop-color:#CF6215"/>
		<stop  offset="0.21" style="stop-color:#D6712A"/>
		<stop  offset="0.69" style="stop-color:#E6A346"/>
		<stop  offset="1" style="stop-color:#EFC962"/>
		<a:midPointStop  offset="0" style="stop-color:#CF6215"/>
		<a:midPointStop  offset="0.4737" style="stop-color:#CF6215"/>
		<a:midPointStop  offset="0.21" style="stop-color:#D6712A"/>
		<a:midPointStop  offset="0.5038" style="stop-color:#D6712A"/>
		<a:midPointStop  offset="0.69" style="stop-color:#E6A346"/>
		<a:midPointStop  offset="0.5037" style="stop-color:#E6A346"/>
		<a:midPointStop  offset="1" style="stop-color:#EFC962"/>
	</linearGradient>
	<polygon clip-path="url(#SVGID_4_)" fill="url(#SVGID_5_)" points="57.734,87.817 20.215,78.437 33.288,26.145 70.807,35.525 	"/>
</g>
<g>
	<defs>
		<path id="SVGID_6_" d="M32.156,27.089c0,0,0.534-0.2,4.74-0.134c4.206,0.067,7.744,0.801,12.951,1.535s13.819,3.338,13.819,3.338
			c1.034,4.673,0.634,6.509,0.434,11.383c-0.201,4.873-2.403,14.286-4.94,19.894c-2.537,5.608-5.875,9.647-8.879,13.118
			c-3.004,3.471-9.646,8.078-11.015,9.013c-1.369,0.935-4.273,2.67-4.54,2.47c-0.267-0.201-2.203-1.836-2.203-1.836l-0.334,5.341
			l2.604,1.602c0,0,6.609-3.071,8.679-4.339c2.07-1.269,8.679-5.808,14.42-13.686s8.612-17.624,10.281-26.169
			c0.807-4.13,1.021-8.681,1.026-12.282v-0.306c-0.006-3.688-0.225-6.305-0.225-6.305c-2.303-1.169-3.137-1.436-6.342-2.571
			c-3.204-1.135-13.652-3.605-19.694-4.306c-6.042-0.701-8.979-0.701-8.979-0.701L32.156,27.089z"/>
	</defs>
	<clipPath id="SVGID_7_">
		<use xlink:href="#SVGID_6_"  overflow="visible"/>
	</clipPath>
	
		<linearGradient id="SVGID_8_" gradientUnits="userSpaceOnUse" x1="-91.5232" y1="219.1667" x2="-91.2561" y2="219.1667" gradientTransform="matrix(0 -264.6255 -264.6255 0 58047.7656 -24126.5449)">
		<stop  offset="0" style="stop-color:#2D5372"/>
		<stop  offset="1" style="stop-color:#2F5472"/>
		<a:midPointStop  offset="0" style="stop-color:#2D5372"/>
		<a:midPointStop  offset="0.6901" style="stop-color:#2D5372"/>
		<a:midPointStop  offset="1" style="stop-color:#2F5472"/>
	</linearGradient>
	<rect x="32.156" y="22.149" clip-path="url(#SVGID_7_)" fill="url(#SVGID_8_)" width="37.044" height="70.665"/>
</g>
<g>
	<defs>
		<path id="SVGID_9_" d="M28.214,18.644c-2.27,6.075-5.741,9.346-9.88,14.553C14.195,38.404,8.053,46.95,7.386,57.498
			s4.206,18.359,10.882,24.367c6.676,6.008,16.526,10.949,16.526,10.949l-0.067-5.107c0,0-6.178-4.44-7.446-10.716
			c-1.268-6.275,0.735-10.281,2.404-14.153c1.669-3.872,6.676-9.079,9.48-13.886c2.804-4.807,2.604-9.079,2.136-11.616
			c-0.467-2.537-4.406-5.942-4.406-5.942s1.469,3.404,0.801,7.677c-0.668,4.273-3.071,6.81-4.94,8.612
			c-1.869,1.802-6.809,5.14-9.947,7.477c-3.138,2.337-5.007,5.474-5.007,5.474s-0.267-2.604,0.2-4.807
			c0.467-2.203,0.668-3.539,2.871-8.478c2.203-4.94,6.342-10.281,7.611-12.017c1.268-1.736,5.009-8.363,6.008-11.816
			c1-3.453,1.669-7.744,0.401-13.285c-1.269-5.541-7.41-9.046-7.41-9.046C29.949,7.461,30.484,12.568,28.214,18.644"/>
	</defs>
	<clipPath id="SVGID_10_">
		<use xlink:href="#SVGID_9_"  overflow="visible"/>
	</clipPath>
	
		<linearGradient id="SVGID_11_" gradientUnits="userSpaceOnUse" x1="-91.6322" y1="218.9191" x2="-91.3652" y2="218.9191" gradientTransform="matrix(0 -343.1274 -343.1274 0 75141.4688 -31348.7227)">
		<stop  offset="0" style="stop-color:#2D5372"/>
		<stop  offset="0.48" style="stop-color:#CB4E1C"/>
		<stop  offset="0.62" style="stop-color:#D16121"/>
		<stop  offset="0.75" style="stop-color:#E1953D"/>
		<stop  offset="0.89" style="stop-color:#EAAF4F"/>
		<stop  offset="1" style="stop-color:#EEC758"/>
		<a:midPointStop  offset="0" style="stop-color:#2D5372"/>
		<a:midPointStop  offset="0.4995" style="stop-color:#2D5372"/>
		<a:midPointStop  offset="0.48" style="stop-color:#CB4E1C"/>
		<a:midPointStop  offset="0.4987" style="stop-color:#CB4E1C"/>
		<a:midPointStop  offset="0.62" style="stop-color:#D16121"/>
		<a:midPointStop  offset="0.4845" style="stop-color:#D16121"/>
		<a:midPointStop  offset="0.75" style="stop-color:#E1953D"/>
		<a:midPointStop  offset="0.4795" style="stop-color:#E1953D"/>
		<a:midPointStop  offset="0.89" style="stop-color:#EAAF4F"/>
		<a:midPointStop  offset="0.4849" style="stop-color:#EAAF4F"/>
		<a:midPointStop  offset="1" style="stop-color:#EEC758"/>
	</linearGradient>
	<rect x="6.718" y="1.186" clip-path="url(#SVGID_10_)" fill="url(#SVGID_11_)" width="35.25" height="91.628"/>
</g>
</svg>
