<?xml version="1.0" encoding="utf-8"?>
<!-- Generator: Adobe Illustrator 17.0.0, SVG Export Plug-In . SVG Version: 6.00 Build 0)  -->
<!DOCTYPE svg PUBLIC "-//W3C//DTD SVG 1.1//EN" "http://www.w3.org/Graphics/SVG/1.1/DTD/svg11.dtd">
<svg version="1.1" id="Слой_1" xmlns="http://www.w3.org/2000/svg" xmlns:xlink="http://www.w3.org/1999/xlink" x="0px" y="0px"
	 width="176px" height="190px" viewBox="0 0 176 190" enable-background="new 0 0 176 190" xml:space="preserve">
<rect x="43.405" y="69.091" fill="#201600" width="89.81" height="6.918"/>
<rect x="43.405" y="48.381" fill="#201600" width="89.81" height="6.883"/>
<g>
	<defs>
		<rect id="SVGID_1_" x="1.942" width="172.036" height="190"/>
	</defs>
	<clipPath id="SVGID_2_">
		<use xlink:href="#SVGID_1_"  overflow="visible"/>
	</clipPath>
	<path clip-path="url(#SVGID_2_)" fill="#201600" d="M153.959,58.028V34.545c0-7.591-6.244-13.835-13.835-13.835h-28.336L88.305,0
		L64.823,20.71H36.487c-7.591,0-13.835,6.244-13.835,13.835v23.482L1.942,76.009v96.719c0,7.591,6.21,13.835,13.835,13.835h145.056
		c7.626,0,13.835-6.244,13.835-13.835V76.009L153.959,58.028z M153.959,67.035l10.355,8.973l-10.355,8.973V67.035z M88.305,8.973
		l13.127,11.737H74.47L88.305,8.973z M29.57,34.545c0-4.145,2.772-6.918,6.918-6.918h103.636c3.437,0,6.918,3.48,6.918,6.918v55.964
		l-22.135,20.045H51.705L29.57,91.191V34.545z M102.141,131.264H78.624h11.737H74.47l-15.174-13.792h57.345L102.141,131.264z
		 M22.652,67.035V85.69l-10.355-9.681L22.652,67.035z M10.915,177.555c-1.382-1.39-2.055-2.772-2.055-4.828V82.926l55.255,48.338
		L10.915,177.555z M19.215,179.645l48.381-41.463h41.42l48.381,41.463H19.215z M167.751,127.827v44.9
		c0,2.055-0.674,3.437-2.055,4.828l-53.2-46.291l55.255-48.338V127.827z"/>
</g>
<rect x="43.405" y="89.801" fill="#201600" width="89.81" height="6.918"/>
</svg>
