
<svg version="1.1" id="Слой_1" xmlns="http://www.w3.org/2000/svg" xmlns:xlink="http://www.w3.org/1999/xlink" x="0px" y="0px"
	 width="22.398px" height="25.602px" viewBox="0 0 22.398 25.602" enable-background="new 0 0 22.398 25.602" xml:space="preserve">
<g>
	<defs>
		<rect id="SVGID_1_" y="0" width="22.398" height="25.602"/>
	</defs>
	<clipPath id="SVGID_2_">
		<use xlink:href="#SVGID_1_"  overflow="visible"/>
	</clipPath>
	<path clip-path="url(#SVGID_2_)" fill-rule="evenodd" clip-rule="evenodd" d="M16.801,0H7.199C5.508,0,4,1.555,4,3.199L3.074,3.223
		C1.383,3.223,0,4.754,0,6.398v16c0,1.649,1.508,3.204,3.199,3.204h12c1.696,0,3.199-1.555,3.199-3.204h0.801
		c1.696,0,3.199-1.55,3.199-3.199V6.418L16.801,0z M15.199,24h-12c-0.84,0-1.597-0.785-1.597-1.602v-16
		c0-0.812,0.683-1.57,1.523-1.57L4,4.801v14.398c0,1.649,1.508,3.199,3.199,3.199h9.602C16.801,23.215,16.039,24,15.199,24
		 M20.801,19.199c0,0.817-0.762,1.602-1.602,1.602h-12c-0.84,0-1.597-0.785-1.597-1.602v-16c0-0.812,0.757-1.597,1.597-1.597h8
		c-0.011,1.839,0,3.218,0,3.218c0,1.66,1.496,3.18,3.199,3.18h2.403V19.199z M18.398,6.398c-0.851,0-1.597-1.546-1.597-2.375V1.625
		l4,4.773H18.398z M16.801,11.215H9.602c-0.442,0-0.801,0.355-0.801,0.797c0,0.445,0.359,0.8,0.801,0.8h7.199
		c0.441,0,0.801-0.355,0.801-0.8C17.602,11.57,17.242,11.215,16.801,11.215 M16.801,15.211H9.602c-0.442,0-0.801,0.355-0.801,0.797
		c0,0.445,0.359,0.801,0.801,0.801h7.199c0.441,0,0.801-0.356,0.801-0.801C17.602,15.566,17.242,15.211,16.801,15.211"/>
</g>
</svg>
